<mxfile host="app.diagrams.net" modified="2023-04-18T10:39:49.019Z" agent="Mozilla/5.0 (Windows NT 10.0; Win64; x64) AppleWebKit/537.36 (KHTML, like Gecko) Chrome/112.0.0.0 Safari/537.36" etag="WTNIpW46GbwmBYrl9sjF" version="21.1.8" type="github">
  <diagram id="C5RBs43oDa-KdzZeNtuy" name="Page-1">
    <mxGraphModel dx="1050" dy="577" grid="1" gridSize="10" guides="1" tooltips="1" connect="1" arrows="1" fold="1" page="1" pageScale="1" pageWidth="827" pageHeight="1169" math="0" shadow="0">
      <root>
        <mxCell id="WIyWlLk6GJQsqaUBKTNV-0" />
        <mxCell id="WIyWlLk6GJQsqaUBKTNV-1" parent="WIyWlLk6GJQsqaUBKTNV-0" />
        <mxCell id="pQejEB6cQ_xvsdO-xQY7-11" value="Outlook" style="ellipse;whiteSpace=wrap;html=1;aspect=fixed;" parent="WIyWlLk6GJQsqaUBKTNV-1" vertex="1">
          <mxGeometry x="350" y="40" width="140" height="140" as="geometry" />
        </mxCell>
        <mxCell id="pQejEB6cQ_xvsdO-xQY7-12" value="Yes" style="ellipse;whiteSpace=wrap;html=1;aspect=fixed;direction=south;" parent="WIyWlLk6GJQsqaUBKTNV-1" vertex="1">
          <mxGeometry x="220" y="190" width="90" height="90" as="geometry" />
        </mxCell>
        <mxCell id="pQejEB6cQ_xvsdO-xQY7-13" value="" style="endArrow=classic;html=1;rounded=0;exitX=0.223;exitY=0.921;exitDx=0;exitDy=0;exitPerimeter=0;" parent="WIyWlLk6GJQsqaUBKTNV-1" source="pQejEB6cQ_xvsdO-xQY7-11" target="pQejEB6cQ_xvsdO-xQY7-12" edge="1">
          <mxGeometry width="50" height="50" relative="1" as="geometry">
            <mxPoint x="390" y="310" as="sourcePoint" />
            <mxPoint x="440" y="260" as="targetPoint" />
          </mxGeometry>
        </mxCell>
        <mxCell id="pQejEB6cQ_xvsdO-xQY7-14" value="Overcast" style="text;strokeColor=none;align=center;fillColor=none;html=1;verticalAlign=middle;whiteSpace=wrap;rounded=0;" parent="WIyWlLk6GJQsqaUBKTNV-1" vertex="1">
          <mxGeometry x="260" y="150" width="80" height="30" as="geometry" />
        </mxCell>
        <mxCell id="pQejEB6cQ_xvsdO-xQY7-15" value="Humidity" style="ellipse;whiteSpace=wrap;html=1;aspect=fixed;" parent="WIyWlLk6GJQsqaUBKTNV-1" vertex="1">
          <mxGeometry x="350" y="250" width="140" height="140" as="geometry" />
        </mxCell>
        <mxCell id="pQejEB6cQ_xvsdO-xQY7-16" value="" style="endArrow=classic;html=1;rounded=0;entryX=0.5;entryY=0;entryDx=0;entryDy=0;exitX=0.5;exitY=1;exitDx=0;exitDy=0;" parent="WIyWlLk6GJQsqaUBKTNV-1" source="pQejEB6cQ_xvsdO-xQY7-11" target="pQejEB6cQ_xvsdO-xQY7-15" edge="1">
          <mxGeometry width="50" height="50" relative="1" as="geometry">
            <mxPoint x="390" y="310" as="sourcePoint" />
            <mxPoint x="440" y="260" as="targetPoint" />
          </mxGeometry>
        </mxCell>
        <mxCell id="pQejEB6cQ_xvsdO-xQY7-20" value="" style="endArrow=classic;html=1;rounded=0;entryX=0.251;entryY=0.069;entryDx=0;entryDy=0;entryPerimeter=0;" parent="WIyWlLk6GJQsqaUBKTNV-1" source="pQejEB6cQ_xvsdO-xQY7-15" target="Ps5NgABwOvxrKIFeGiFW-1" edge="1">
          <mxGeometry width="50" height="50" relative="1" as="geometry">
            <mxPoint x="390" y="400" as="sourcePoint" />
            <mxPoint x="369.4974746830583" y="400.5025253169417" as="targetPoint" />
          </mxGeometry>
        </mxCell>
        <mxCell id="pQejEB6cQ_xvsdO-xQY7-21" value="High" style="text;strokeColor=none;align=center;fillColor=none;html=1;verticalAlign=middle;whiteSpace=wrap;rounded=0;" parent="WIyWlLk6GJQsqaUBKTNV-1" vertex="1">
          <mxGeometry x="270" y="330" width="80" height="30" as="geometry" />
        </mxCell>
        <mxCell id="pQejEB6cQ_xvsdO-xQY7-23" value="" style="endArrow=classic;html=1;rounded=0;exitX=0.193;exitY=0.907;exitDx=0;exitDy=0;exitPerimeter=0;entryX=0.096;entryY=0.233;entryDx=0;entryDy=0;entryPerimeter=0;" parent="WIyWlLk6GJQsqaUBKTNV-1" source="Ps5NgABwOvxrKIFeGiFW-6" target="Ps5NgABwOvxrKIFeGiFW-9" edge="1">
          <mxGeometry width="50" height="50" relative="1" as="geometry">
            <mxPoint x="560.4825253169417" y="463.7374746830583" as="sourcePoint" />
            <mxPoint x="520" y="540" as="targetPoint" />
          </mxGeometry>
        </mxCell>
        <mxCell id="pQejEB6cQ_xvsdO-xQY7-26" value="" style="endArrow=classic;html=1;rounded=0;entryX=0.284;entryY=0.044;entryDx=0;entryDy=0;entryPerimeter=0;exitX=0.8;exitY=0.904;exitDx=0;exitDy=0;exitPerimeter=0;" parent="WIyWlLk6GJQsqaUBKTNV-1" source="pQejEB6cQ_xvsdO-xQY7-11" target="Ps5NgABwOvxrKIFeGiFW-6" edge="1">
          <mxGeometry width="50" height="50" relative="1" as="geometry">
            <mxPoint x="460" y="160" as="sourcePoint" />
            <mxPoint x="590" y="350" as="targetPoint" />
          </mxGeometry>
        </mxCell>
        <mxCell id="pQejEB6cQ_xvsdO-xQY7-28" value="PlayBadminton&lt;br&gt;Yes" style="ellipse;whiteSpace=wrap;html=1;aspect=fixed;" parent="WIyWlLk6GJQsqaUBKTNV-1" vertex="1">
          <mxGeometry x="180" y="730" width="90" height="90" as="geometry" />
        </mxCell>
        <mxCell id="pQejEB6cQ_xvsdO-xQY7-29" value="PlayBadminton&lt;br&gt;No" style="ellipse;whiteSpace=wrap;html=1;aspect=fixed;" parent="WIyWlLk6GJQsqaUBKTNV-1" vertex="1">
          <mxGeometry x="300" y="780" width="90" height="90" as="geometry" />
        </mxCell>
        <mxCell id="pQejEB6cQ_xvsdO-xQY7-30" value="" style="endArrow=classic;html=1;rounded=0;exitX=0;exitY=1;exitDx=0;exitDy=0;entryX=1;entryY=0;entryDx=0;entryDy=0;" parent="WIyWlLk6GJQsqaUBKTNV-1" target="pQejEB6cQ_xvsdO-xQY7-28" edge="1">
          <mxGeometry width="50" height="50" relative="1" as="geometry">
            <mxPoint x="290.5025253169417" y="709.4974746830583" as="sourcePoint" />
            <mxPoint x="440" y="640" as="targetPoint" />
          </mxGeometry>
        </mxCell>
        <mxCell id="pQejEB6cQ_xvsdO-xQY7-31" value="" style="endArrow=classic;html=1;rounded=0;exitX=0.5;exitY=1;exitDx=0;exitDy=0;entryX=0.413;entryY=-0.02;entryDx=0;entryDy=0;entryPerimeter=0;" parent="WIyWlLk6GJQsqaUBKTNV-1" target="pQejEB6cQ_xvsdO-xQY7-29" edge="1">
          <mxGeometry width="50" height="50" relative="1" as="geometry">
            <mxPoint x="340" y="730" as="sourcePoint" />
            <mxPoint x="440" y="640" as="targetPoint" />
          </mxGeometry>
        </mxCell>
        <mxCell id="pQejEB6cQ_xvsdO-xQY7-32" value="True" style="text;strokeColor=none;align=center;fillColor=none;html=1;verticalAlign=middle;whiteSpace=wrap;rounded=0;" parent="WIyWlLk6GJQsqaUBKTNV-1" vertex="1">
          <mxGeometry x="210" y="700" width="80" height="30" as="geometry" />
        </mxCell>
        <mxCell id="pQejEB6cQ_xvsdO-xQY7-34" value="False" style="text;strokeColor=none;align=center;fillColor=none;html=1;verticalAlign=middle;whiteSpace=wrap;rounded=0;" parent="WIyWlLk6GJQsqaUBKTNV-1" vertex="1">
          <mxGeometry x="270" y="740" width="80" height="30" as="geometry" />
        </mxCell>
        <mxCell id="pQejEB6cQ_xvsdO-xQY7-36" value="" style="endArrow=classic;html=1;rounded=0;exitX=0.5;exitY=1;exitDx=0;exitDy=0;" parent="WIyWlLk6GJQsqaUBKTNV-1" source="pQejEB6cQ_xvsdO-xQY7-15" edge="1">
          <mxGeometry width="50" height="50" relative="1" as="geometry">
            <mxPoint x="420" y="390" as="sourcePoint" />
            <mxPoint x="420" y="450" as="targetPoint" />
          </mxGeometry>
        </mxCell>
        <mxCell id="pQejEB6cQ_xvsdO-xQY7-44" value="PlayBadminton&lt;br&gt;Yes" style="ellipse;whiteSpace=wrap;html=1;aspect=fixed;" parent="WIyWlLk6GJQsqaUBKTNV-1" vertex="1">
          <mxGeometry x="560" y="790" width="90" height="90" as="geometry" />
        </mxCell>
        <mxCell id="pQejEB6cQ_xvsdO-xQY7-45" value="PlayBadminton&lt;br&gt;No" style="ellipse;whiteSpace=wrap;html=1;aspect=fixed;" parent="WIyWlLk6GJQsqaUBKTNV-1" vertex="1">
          <mxGeometry x="700" y="830" width="90" height="90" as="geometry" />
        </mxCell>
        <mxCell id="pQejEB6cQ_xvsdO-xQY7-46" value="True" style="text;strokeColor=none;align=center;fillColor=none;html=1;verticalAlign=middle;whiteSpace=wrap;rounded=0;" parent="WIyWlLk6GJQsqaUBKTNV-1" vertex="1">
          <mxGeometry x="590" y="750" width="80" height="30" as="geometry" />
        </mxCell>
        <mxCell id="pQejEB6cQ_xvsdO-xQY7-47" value="False" style="text;strokeColor=none;align=center;fillColor=none;html=1;verticalAlign=middle;whiteSpace=wrap;rounded=0;" parent="WIyWlLk6GJQsqaUBKTNV-1" vertex="1">
          <mxGeometry x="670" y="790" width="80" height="30" as="geometry" />
        </mxCell>
        <mxCell id="pQejEB6cQ_xvsdO-xQY7-48" value="" style="endArrow=classic;html=1;rounded=0;entryX=1;entryY=0;entryDx=0;entryDy=0;" parent="WIyWlLk6GJQsqaUBKTNV-1" target="pQejEB6cQ_xvsdO-xQY7-44" edge="1">
          <mxGeometry width="50" height="50" relative="1" as="geometry">
            <mxPoint x="672.0155704815279" y="748.7978155559908" as="sourcePoint" />
            <mxPoint x="440" y="640" as="targetPoint" />
          </mxGeometry>
        </mxCell>
        <mxCell id="pQejEB6cQ_xvsdO-xQY7-49" value="" style="endArrow=classic;html=1;rounded=0;entryX=0.422;entryY=-0.002;entryDx=0;entryDy=0;entryPerimeter=0;" parent="WIyWlLk6GJQsqaUBKTNV-1" target="pQejEB6cQ_xvsdO-xQY7-45" edge="1">
          <mxGeometry width="50" height="50" relative="1" as="geometry">
            <mxPoint x="720" y="760" as="sourcePoint" />
            <mxPoint x="440" y="640" as="targetPoint" />
          </mxGeometry>
        </mxCell>
        <mxCell id="Ps5NgABwOvxrKIFeGiFW-0" value="Sunny" style="text;strokeColor=none;align=center;fillColor=none;html=1;verticalAlign=middle;whiteSpace=wrap;rounded=0;" vertex="1" parent="WIyWlLk6GJQsqaUBKTNV-1">
          <mxGeometry x="350" y="200" width="80" height="30" as="geometry" />
        </mxCell>
        <mxCell id="Ps5NgABwOvxrKIFeGiFW-1" value="No" style="ellipse;whiteSpace=wrap;html=1;aspect=fixed;direction=south;" vertex="1" parent="WIyWlLk6GJQsqaUBKTNV-1">
          <mxGeometry x="220" y="360" width="90" height="90" as="geometry" />
        </mxCell>
        <mxCell id="Ps5NgABwOvxrKIFeGiFW-2" value="Yes" style="ellipse;whiteSpace=wrap;html=1;aspect=fixed;direction=south;" vertex="1" parent="WIyWlLk6GJQsqaUBKTNV-1">
          <mxGeometry x="369" y="435" width="90" height="90" as="geometry" />
        </mxCell>
        <mxCell id="Ps5NgABwOvxrKIFeGiFW-5" value="Normal" style="text;strokeColor=none;align=center;fillColor=none;html=1;verticalAlign=middle;whiteSpace=wrap;rounded=0;" vertex="1" parent="WIyWlLk6GJQsqaUBKTNV-1">
          <mxGeometry x="350" y="398" width="80" height="30" as="geometry" />
        </mxCell>
        <mxCell id="Ps5NgABwOvxrKIFeGiFW-6" value="Windy" style="ellipse;whiteSpace=wrap;html=1;aspect=fixed;" vertex="1" parent="WIyWlLk6GJQsqaUBKTNV-1">
          <mxGeometry x="535" y="350" width="140" height="140" as="geometry" />
        </mxCell>
        <mxCell id="Ps5NgABwOvxrKIFeGiFW-7" value="Rain" style="text;strokeColor=none;align=center;fillColor=none;html=1;verticalAlign=middle;whiteSpace=wrap;rounded=0;" vertex="1" parent="WIyWlLk6GJQsqaUBKTNV-1">
          <mxGeometry x="510" y="230" width="80" height="30" as="geometry" />
        </mxCell>
        <mxCell id="Ps5NgABwOvxrKIFeGiFW-8" value="Strong" style="text;strokeColor=none;align=center;fillColor=none;html=1;verticalAlign=middle;whiteSpace=wrap;rounded=0;" vertex="1" parent="WIyWlLk6GJQsqaUBKTNV-1">
          <mxGeometry x="470" y="480" width="80" height="30" as="geometry" />
        </mxCell>
        <mxCell id="Ps5NgABwOvxrKIFeGiFW-9" value="No" style="ellipse;whiteSpace=wrap;html=1;aspect=fixed;direction=south;" vertex="1" parent="WIyWlLk6GJQsqaUBKTNV-1">
          <mxGeometry x="450" y="530" width="90" height="90" as="geometry" />
        </mxCell>
        <mxCell id="Ps5NgABwOvxrKIFeGiFW-11" value="Yes" style="ellipse;whiteSpace=wrap;html=1;aspect=fixed;direction=south;" vertex="1" parent="WIyWlLk6GJQsqaUBKTNV-1">
          <mxGeometry x="680" y="530" width="90" height="90" as="geometry" />
        </mxCell>
        <mxCell id="Ps5NgABwOvxrKIFeGiFW-12" value="" style="endArrow=classic;html=1;rounded=0;" edge="1" parent="WIyWlLk6GJQsqaUBKTNV-1" source="Ps5NgABwOvxrKIFeGiFW-6" target="Ps5NgABwOvxrKIFeGiFW-11">
          <mxGeometry width="50" height="50" relative="1" as="geometry">
            <mxPoint x="500" y="450" as="sourcePoint" />
            <mxPoint x="550" y="400" as="targetPoint" />
          </mxGeometry>
        </mxCell>
        <mxCell id="Ps5NgABwOvxrKIFeGiFW-13" value="Weak" style="text;strokeColor=none;align=center;fillColor=none;html=1;verticalAlign=middle;whiteSpace=wrap;rounded=0;" vertex="1" parent="WIyWlLk6GJQsqaUBKTNV-1">
          <mxGeometry x="670" y="480" width="80" height="30" as="geometry" />
        </mxCell>
      </root>
    </mxGraphModel>
  </diagram>
</mxfile>
